/vscmnt/brussel_pixiu_data/_data_brussel/112/vsc11236/PredSimResults/SUBJ10opt3D/trackIG/worker_15.mot
version=1
nRows=9
nColumns=50
inDegrees=yes
endheader
                time	         pelvis_tilt	         pelvis_list	     pelvis_rotation	           pelvis_tx	           pelvis_ty	           pelvis_tz	       hip_flexion_r	     hip_adduction_r	      hip_rotation_r	        knee_angle_r	       ankle_angle_r	         mtp_angle_r	       hip_flexion_l	     hip_adduction_l	      hip_rotation_l	        knee_angle_l	       ankle_angle_l	         mtp_angle_l	    lumbar_extension	      lumbar_bending	     lumbar_rotation	 ercspn_r/activation	 intobl_r/activation	 extobl_r/activation	    abd_r/activation	    add_r/activation	hamstrings_r/activation	bifemsh_r/activation	glut_max_r/activation	iliopsoas_r/activation	rect_fem_r/activation	  vasti_r/activation	gastroc_r/activation	 soleus_r/activation	tib_ant_r/activation	 ercspn_l/activation	 intobl_l/activation	 extobl_l/activation	    abd_l/activation	    add_l/activation	hamstrings_l/activation	bifemsh_l/activation	glut_max_l/activation	iliopsoas_l/activation	rect_fem_l/activation	  vasti_l/activation	gastroc_l/activation	 soleus_l/activation	tib_ant_l/activation	
          1.15240920	        -12.46754767	         -2.59622288	         14.57652789	          2.30481840	          0.78683140	         -0.01146501	         47.26090865	         -5.66864318	         -1.30332503	        -20.20413799	        -14.42004271	          0.25899497	         -2.74071530	         -2.27986879	          8.70074754	        -30.25425301	          3.05851235	         39.09490113	         -4.50736381	          0.00180231	         -3.13399660	          0.10994858	          0.08604319	          0.01693959	          0.03821589	          0.15074237	          0.08891909	          0.24803239	          0.17595299	          0.14732727	          0.01537104	          0.00999999	          0.02418041	          0.00999999	          0.13085302	          0.08738714	          0.09962307	          0.01192067	          0.04231975	          0.17873284	          0.06330419	          0.32382331	          0.01837736	          0.49761716	          0.00999999	          0.06056471	          0.17187373	          0.21021694	          0.01750677	
          1.16393329	        -12.36750493	         -2.49545176	         14.69572187	          2.33305183	          0.78618547	         -0.01080774	         47.43418438	         -5.40313773	         -1.36969739	        -24.98701930	         -9.24000595	          0.79860012	         -2.94488253	         -2.53675577	          8.27366226	        -32.74942101	         -0.09783764	         37.91112887	         -4.24606855	          0.26815702	         -3.04525079	          0.14942951	          0.07217976	          0.01421025	          0.17731813	          0.23850242	          0.07459228	          0.20806896	          0.41726341	          0.12358963	          0.01289443	          0.00999999	          0.02028442	          0.01352212	          0.10976974	          0.20499682	          0.08357162	          0.00999999	          0.03550111	          0.14993508	          0.05310450	          0.27164831	          0.01541637	          0.62398892	          0.00999999	          0.05080642	          0.14418112	          0.17634641	          0.01468604	
          1.17545739	        -12.27225621	         -2.37257848	         14.78118924	          2.36062666	          0.78576247	         -0.01000650	         47.47056490	         -5.05597786	         -1.16064776	        -29.77946095	         -3.29324701	          1.49385310	         -2.45012561	         -2.68998633	          7.90537916	        -36.23444558	         -3.08979503	         35.18611187	         -4.07875796	          0.50049302	         -2.90387000	          0.14709040	          0.06055002	          0.01192067	          0.24031150	          0.29399336	          0.06257384	          0.17454451	          0.50613283	          0.10367665	          0.01081686	          0.00999999	          0.01701616	          0.01134341	          0.09208344	          0.31639599	          0.09991049	          0.00999999	          0.02978111	          0.12577727	          0.04454821	          0.22787984	          0.01293245	          0.65605583	          0.00999999	          0.04262039	          0.12095039	          0.14793315	          0.27368591	
          1.18698148	        -12.17415502	         -2.22065241	         14.83405283	          2.38737010	          0.78562620	         -0.00905580	         47.53985321	         -4.64972490	         -0.77289437	        -34.25198516	          1.23590297	          2.23702367	         -1.39097484	         -2.75774950	          7.58898275	        -40.45562296	         -4.96675555	         30.66427293	         -4.00993156	          0.67843993	         -2.72358927	          0.21854275	          0.05079409	          0.00999999	          0.27945902	          0.33963524	          0.05249183	          0.14642158	          0.60825239	          0.08697208	          0.00999999	          0.00999999	          0.01427448	          0.11034390	          0.07724679	          0.40693686	          0.13752126	          0.00999999	          0.02498272	          0.10551180	          0.03737052	          0.19116342	          0.01084875	          0.55512520	          0.10983167	          0.03575332	          0.10146265	          0.12409789	          0.29292033	
          1.19850557	        -12.07515836	         -2.04532527	         14.87020562	          2.41362793	          0.78573571	         -0.00802465	         47.44778516	         -4.21853322	         -0.33500797	        -38.13392246	          4.32234903	          3.33807972	         -0.05296143	         -2.80223157	          7.25407755	        -44.54355428	         -5.50375390	         26.50970410	         -3.96034454	          0.78933737	         -2.51255159	          0.23701856	          0.04261006	          0.00999999	          0.27588627	          0.33796769	          0.04403425	          0.12282987	          0.61351977	          0.07295898	          0.00999999	          0.02212406	          0.01197455	          0.20457159	          0.09815534	          0.43684221	          0.11536359	          0.00999999	          0.02095746	          0.08851155	          0.03134931	          0.16036282	          0.00999999	          0.46568241	          0.09213539	          0.02999268	          0.08511480	          0.10410301	          0.32408969	
          1.21002966	        -11.98254174	         -1.86058067	         14.88356245	          2.43959169	          0.78618184	         -0.00695358	         47.06736922	         -3.76572533	          0.08022925	        -41.34601309	          6.61702805	          4.77226704	          1.47521468	         -2.85328360	          6.86287762	        -48.22919060	         -5.76361376	         22.92848559	         -3.88062514	          0.84548920	         -2.26888957	          0.19882969	          0.03574465	          0.00999999	          0.27538865	          0.28468734	          0.06004576	          0.10303929	          0.53908385	          0.06120369	          0.00999999	          0.12589383	          0.01004519	          0.27617358	          0.08234037	          0.42522716	          0.10149960	          0.00999999	          0.01758076	          0.07425041	          0.02629825	          0.16181590	          0.00999999	          0.39065082	          0.07729037	          0.02516020	          0.09264625	          0.08732975	          0.32708029	
          1.22155375	        -11.91511286	         -1.68225759	         14.87166497	          2.46517467	          0.78719279	         -0.00588880	         46.27098719	         -3.30186566	          0.42429881	        -43.66383558	          8.37011442	          6.49981983	          3.20441936	         -2.91042607	          6.41709464	        -51.49043657	         -5.84843927	         19.82222521	         -3.76341947	          0.86953465	         -2.00237836	          0.16679389	          0.02998540	          0.00999999	          0.30847978	          0.23881800	          0.07574888	          0.08643742	          0.45222568	          0.05134244	          0.00999999	          0.30656404	          0.00999999	          0.34061505	          0.06907354	          0.40300735	          0.08514580	          0.00999999	          0.01474811	          0.06228705	          0.02206103	          0.18944515	          0.00999999	          0.32770844	          0.06483720	          0.02110635	          0.11578353	          0.07325902	          0.32757362	
          1.23307785	        -11.88528407	         -1.53082565	         14.81651329	          2.49020040	          0.78914394	         -0.00488952	         44.93495872	         -2.82557268	          0.67691340	        -44.86247987	          9.82411800	          8.40170207	          5.16358205	         -2.96767565	          5.91183653	        -54.34887238	         -5.79500616	         17.11774515	         -3.62571207	          0.90005351	         -1.70228206	          0.13991976	          0.02515410	          0.00999999	          0.33501993	          0.20033920	          0.09943226	          0.07251046	          0.37936226	          0.04307006	          0.00999999	          0.42943617	          0.00999999	          0.39615852	          0.05794429	          0.38216098	          0.07142695	          0.01000000	          0.01237187	          0.05225124	          0.01850652	          0.30452193	          0.00999999	          0.27490746	          0.05439051	          0.01770565	          0.15670992	          0.06145539	          0.31592994	
          1.24460194	        -11.89992687	         -1.39352663	         14.69249361	          2.51449131	          0.79232273	         -0.00397838	         43.13916004	         -2.34702594	          0.89296816	        -45.03009290	         10.97425423	         10.35725307	          7.37701520	         -2.98962881	          5.33271257	        -56.87401085	         -5.63137009	         14.77385440	         -3.49881783	          0.93725661	         -1.35205110	          0.11737563	          0.02110123	          0.00999999	          0.33260050	          0.16806019	          0.11467918	          0.06082744	          0.31823872	          0.03613053	          0.00999999	          0.44831247	          0.00999999	          0.44791444	          0.04860820	          0.36770234	          0.05991851	          0.01421025	          0.01037849	          0.04383243	          0.01552471	          0.42147067	          0.00999999	          0.23061387	          0.04562702	          0.01485289	          0.19836808	          0.05155359	          0.29789575	
